<?xml version="1.0" standalone="no"?>
<!DOCTYPE svg PUBLIC "-//W3C//DTD SVG 20010904//EN"
 "http://www.w3.org/TR/2001/REC-SVG-20010904/DTD/svg10.dtd">
<svg version="1.0" xmlns="http://www.w3.org/2000/svg"
 width="700.000000pt" height="700.000000pt" viewBox="0 0 700.000000 700.000000"
 preserveAspectRatio="xMidYMid meet">
<metadata>
Created by potrace 1.14, written by Peter Selinger 2001-2017
</metadata>
<g transform="translate(0.000000,700.000000) scale(0.100000,-0.100000)"
fill="#000000" stroke="none">
<path d="M3599 6996 c-2 -2 -35 -7 -74 -10 -384 -35 -807 -174 -1162 -381
-813 -476 -1410 -1279 -1662 -2236 -16 -63 -32 -127 -34 -144 -3 -16 -10 -50
-15 -75 -6 -25 -14 -67 -17 -95 -3 -27 -8 -59 -10 -71 -2 -11 -7 -45 -10 -75
-4 -30 -8 -70 -11 -89 -28 -236 -22 -700 12 -905 3 -22 8 -51 10 -65 21 -129
74 -328 94 -355 4 -5 12 -25 18 -44 35 -101 212 -310 367 -433 88 -69 202
-148 214 -148 5 0 11 -3 13 -7 7 -18 223 -129 336 -174 103 -41 181 -66 277
-89 172 -40 187 -37 149 29 -50 86 -127 196 -148 211 -12 8 -73 33 -136 56
-105 37 -190 76 -295 137 -238 137 -461 352 -553 533 -57 112 -100 301 -120
529 -9 107 -9 548 1 655 12 134 30 266 47 355 6 28 12 60 15 73 2 13 6 31 9
40 3 9 7 28 10 42 20 103 111 373 178 530 154 355 354 679 593 960 78 92 271
274 367 345 211 158 328 202 548 203 114 0 149 -3 275 -23 203 -32 465 -124
759 -265 101 -49 109 -48 221 10 120 61 139 75 132 93 -7 18 -337 182 -467
232 -203 79 -459 154 -573 169 -65 9 -150 25 -155 30 -16 17 304 125 442 150
14 3 34 7 44 10 9 3 35 7 57 10 22 4 51 8 65 11 78 16 240 29 375 29 208 0
407 -26 628 -84 612 -159 1084 -469 1524 -1000 145 -175 145 -176 165 -152 27
33 76 137 81 173 9 75 -75 190 -308 422 -322 322 -740 580 -1180 730 -85 30
-227 70 -284 82 -9 2 -37 8 -64 14 -26 6 -64 14 -85 17 -20 3 -44 7 -52 9 -8
2 -37 7 -65 10 -27 3 -66 8 -85 11 -39 6 -456 15 -461 10z"/>
<path d="M3367 6596 c-79 -20 -107 -31 -96 -39 9 -5 186 -50 217 -55 26 -3 42
3 87 38 66 51 72 59 54 71 -24 16 -173 7 -262 -15z"/>
<path d="M3997 6604 c-98 -18 -177 -50 -262 -106 -86 -56 -84 -69 20 -114 44
-19 99 -44 123 -55 46 -21 66 -19 117 11 57 35 140 62 205 67 85 7 164 -14
305 -80 l110 -52 130 2 c145 1 177 5 182 20 5 14 -126 113 -222 168 -120 68
-232 108 -390 140 -66 13 -243 12 -318 -1z"/>
<path d="M4210 6269 c-30 -3 -72 -12 -93 -18 -35 -12 -37 -14 -20 -25 33 -22
125 -56 153 -56 35 0 109 26 140 50 l25 19 -27 10 c-48 18 -122 27 -178 20z"/>
<path d="M2602 6156 c-5 -6 -12 -40 -15 -76 -9 -101 -32 -155 -162 -380 -307
-529 -480 -881 -571 -1157 -38 -117 -96 -340 -114 -443 -7 -36 -13 -69 -14
-75 -2 -5 -6 -32 -10 -60 -4 -27 -10 -61 -12 -75 -2 -14 -7 -55 -10 -92 -5
-54 -4 -68 7 -68 8 0 64 25 125 56 l111 56 22 121 c87 474 240 842 651 1562
130 228 184 336 205 410 18 61 16 125 -6 151 -32 39 -190 92 -207 70z"/>
<path d="M4779 6156 c-2 -2 -33 -7 -68 -10 -358 -37 -862 -216 -976 -347 -17
-19 -17 -21 -3 -16 10 3 20 2 23 -2 8 -14 95 -32 180 -38 73 -5 121 1 280 32
17 3 57 13 90 22 33 8 67 17 75 19 77 19 108 26 125 30 11 2 34 7 50 11 39 9
33 8 88 17 27 4 57 9 67 11 110 21 367 26 482 9 154 -23 259 -61 378 -138 l55
-35 3 24 c5 35 -35 157 -68 209 -51 80 -152 139 -304 178 -64 16 -121 21 -277
24 -108 2 -198 2 -200 0z"/>
<path d="M2374 6114 c-27 -12 -61 -25 -75 -27 -154 -28 -271 -84 -354 -170
-85 -88 -170 -195 -162 -203 3 -3 36 4 74 15 101 30 224 57 348 76 61 10 120
24 131 31 31 19 124 227 124 278 0 24 -35 24 -86 0z"/>
<path d="M2997 6103 c-8 -12 -2 -131 6 -139 9 -9 131 53 154 78 15 17 15 21 3
29 -36 22 -154 46 -163 32z"/>
<path d="M3219 5921 c-317 -147 -321 -150 -403 -306 -21 -38 -51 -94 -67 -124
-17 -29 -28 -55 -25 -58 8 -9 184 56 325 121 270 123 546 283 546 316 0 15
-119 79 -190 103 l-42 15 -144 -67z"/>
<path d="M4627 5742 c-91 -26 -197 -70 -197 -83 0 -4 39 -31 88 -60 383 -230
643 -503 882 -924 34 -60 64 -112 67 -115 2 -3 12 5 21 16 9 12 62 77 118 145
178 219 285 380 383 576 57 114 56 132 -23 228 -75 91 -105 120 -114 110 -5
-6 -17 -34 -27 -64 -52 -160 -287 -543 -325 -529 -5 2 -60 64 -122 138 -193
231 -424 463 -557 559 -53 37 -76 38 -194 3z"/>
<path d="M5090 5761 c0 -9 56 -72 221 -246 36 -38 91 -97 120 -129 82 -91 89
-98 102 -93 18 6 126 150 127 170 1 47 -152 167 -292 230 -111 51 -278 91
-278 68z"/>
<path d="M2080 5635 c-201 -42 -303 -90 -405 -192 -58 -58 -155 -195 -155
-218 0 -13 35 -10 55 5 24 18 280 97 486 151 34 8 40 16 98 135 34 69 60 129
56 132 -11 11 -29 9 -135 -13z"/>
<path d="M1875 5195 c-132 -37 -267 -91 -326 -130 -21 -14 -41 -25 -45 -25
-14 0 -157 -115 -214 -174 -144 -148 -246 -344 -275 -533 -9 -55 -9 -200 0
-255 4 -23 8 -54 11 -68 4 -29 36 -130 57 -178 l14 -33 36 40 c89 98 104 142
111 315 3 65 8 126 10 135 3 9 7 33 10 54 3 21 15 66 27 100 68 203 206 348
427 448 159 72 167 77 190 122 12 23 42 78 67 122 24 44 44 83 45 88 0 11 -17
8 -145 -28z"/>
<path d="M1725 4757 c-22 -12 -42 -24 -45 -27 -3 -3 -18 -12 -35 -20 -16 -8
-60 -44 -96 -80 -74 -74 -112 -144 -133 -244 -17 -82 -21 -256 -6 -256 18 0
150 142 196 212 51 76 100 180 144 304 45 128 41 147 -25 111z"/>
<path d="M3378 4265 c-2 -1 -64 -6 -138 -9 -74 -4 -137 -9 -140 -11 -3 -1 -39
-6 -80 -9 -65 -6 -103 -13 -242 -43 -16 -3 -28 -9 -28 -14 0 -4 35 -27 78 -50
42 -23 115 -65 161 -93 85 -51 116 -58 199 -42 97 20 627 28 847 13 479 -31
732 -133 827 -335 26 -55 30 -71 26 -130 -8 -147 -114 -273 -307 -367 -107
-52 -249 -93 -381 -110 -30 -4 -62 -9 -70 -10 -107 -20 -595 -28 -755 -12 -44
4 -102 9 -130 12 -27 3 -61 7 -75 10 -14 3 -43 7 -65 10 -22 2 -60 8 -85 13
-25 5 -59 7 -75 5 -44 -5 -286 -175 -271 -190 5 -5 134 -39 181 -47 17 -3 40
-8 52 -10 11 -3 43 -8 70 -12 26 -3 55 -8 63 -9 9 -2 43 -6 75 -10 33 -4 68
-9 79 -11 10 -2 43 -6 73 -10 31 -3 70 -8 87 -10 87 -12 513 -11 641 2 314 30
600 96 748 170 271 138 422 364 412 616 -14 325 -312 587 -730 642 -22 3 -71
9 -110 15 -38 5 -108 13 -155 16 -47 4 -105 9 -130 11 -53 5 -647 14 -652 9z"/>
<path d="M2197 4185 c-29 -29 -83 -239 -68 -263 3 -5 47 -12 96 -15 142 -10
232 -35 366 -102 131 -65 235 -143 379 -282 35 -35 72 -63 82 -63 23 0 137
107 144 136 8 32 -6 52 -108 154 -263 264 -541 415 -824 446 -39 5 -54 2 -67
-11z"/>
<path d="M1618 4153 c-128 -107 -388 -455 -388 -521 0 -22 94 -122 115 -122
21 0 144 136 204 225 44 67 66 112 85 175 27 96 44 254 28 264 -6 3 -25 -6
-44 -21z"/>
<path d="M3443 3927 c-40 -5 -73 -12 -73 -16 0 -10 486 -331 520 -344 26 -10
130 5 233 34 47 13 43 22 -50 113 -211 204 -343 249 -630 213z"/>
<path d="M4130 3899 c0 -18 105 -115 143 -130 30 -12 31 -12 74 35 23 26 43
51 43 56 0 13 -104 37 -202 47 -45 4 -58 2 -58 -8z"/>
<path d="M917 3863 c-19 -62 -26 -235 -15 -313 18 -119 89 -269 159 -336 l31
-29 64 70 c35 39 67 80 70 91 4 17 -8 39 -50 90 -71 88 -185 279 -221 369 -32
82 -32 82 -38 58z"/>
<path d="M2126 3768 c-150 -20 -360 -111 -512 -223 -233 -172 -443 -453 -530
-712 -30 -90 -30 -148 0 -222 26 -63 121 -211 136 -211 10 0 16 22 24 87 38
313 247 661 524 870 80 61 223 129 317 152 89 21 260 26 339 9 26 -5 58 -7 72
-4 32 8 76 53 93 95 17 40 4 56 -77 99 -104 56 -250 78 -386 60z"/>
<path d="M4524 3723 c-266 -203 -459 -288 -684 -302 -33 -2 -23 -20 49 -90 99
-94 168 -134 244 -139 83 -6 163 13 183 44 9 13 53 42 98 65 259 132 364 260
300 368 -18 31 -94 93 -117 97 -7 1 -40 -19 -73 -43z"/>
<path d="M3445 3660 c-25 -10 -385 -386 -385 -402 0 -10 62 -36 106 -44 44 -8
89 11 205 88 80 52 220 166 262 212 30 33 21 51 -50 92 -90 53 -115 62 -138
54z"/>
<path d="M2743 3526 c-12 -6 -57 -45 -100 -86 -112 -109 -221 -195 -359 -288
-66 -44 -127 -88 -134 -97 -11 -13 -11 -28 -1 -82 19 -102 35 -133 68 -133
123 1 554 295 695 473 45 58 45 59 -47 148 -73 72 -92 82 -122 65z"/>
<path d="M2137 3345 c-22 -21 -20 -115 2 -115 5 0 32 23 61 51 58 56 57 67 -7
76 -29 4 -44 1 -56 -12z"/>
<path d="M3535 3259 c-49 -39 -96 -74 -105 -79 -12 -7 -13 -11 -2 -22 14 -14
404 -24 428 -10 11 6 -5 24 -63 69 -43 33 -91 72 -108 87 -16 14 -37 26 -45
26 -8 -1 -55 -33 -105 -71z"/>
<path d="M1855 3280 c-114 -77 -139 -108 -137 -170 0 -4 6 -69 18 -180 5 -52
43 -244 65 -335 68 -275 213 -606 367 -840 104 -157 121 -175 169 -176 21 0
70 -1 109 -2 38 -1 82 0 97 3 l27 5 -61 90 c-204 304 -355 615 -443 911 -38
126 -79 318 -91 419 -4 33 -9 68 -11 77 -1 10 -6 59 -9 110 -10 149 -10 148
-100 88z"/>
<path d="M1537 2929 c-61 -94 -139 -308 -109 -298 6 2 44 52 86 111 83 117 96
155 87 246 -2 26 -21 9 -64 -59z"/>
<path d="M1648 2712 c-64 -67 -203 -311 -226 -395 -11 -38 -10 -40 33 -82 24
-24 65 -57 92 -74 l48 -30 16 52 c20 62 52 143 81 206 17 36 22 65 22 131 0
82 -19 206 -34 215 -4 2 -18 -8 -32 -23z"/>
<path d="M5405 2368 c-125 -216 -551 -833 -837 -1213 -4 -5 -49 -61 -100 -123
-51 -63 -104 -127 -117 -143 -17 -21 -21 -33 -14 -40 6 -6 62 -13 124 -16 111
-5 115 -4 154 22 22 15 81 79 130 142 50 63 95 120 100 127 19 20 369 493 458
618 119 167 150 203 170 195 8 -3 110 -147 225 -319 116 -172 228 -332 250
-355 42 -46 63 -51 116 -29 68 28 95 85 76 157 -6 21 -88 157 -183 301 -227
347 -300 460 -310 478 -22 45 -174 274 -183 277 -6 2 -32 -34 -59 -79z"/>
<path d="M1755 2210 c-4 -7 -13 -34 -20 -61 -10 -38 -10 -50 -1 -58 19 -16 87
-43 93 -37 7 6 -34 124 -51 148 -10 14 -16 16 -21 8z"/>
<path d="M897 1969 c-36 -51 31 -212 221 -531 383 -644 933 -1097 1577 -1301
185 -58 252 -74 480 -112 157 -27 613 -26 740 0 11 3 38 7 60 10 505 69 1012
273 1320 530 39 32 124 113 191 179 261 261 357 451 294 580 -28 59 -102 142
-118 132 -7 -4 -12 -16 -12 -27 0 -56 -182 -343 -295 -467 -177 -192 -464
-388 -740 -505 -133 -56 -355 -128 -444 -143 -14 -3 -42 -9 -61 -14 -19 -5
-71 -14 -115 -20 -44 -6 -91 -13 -105 -15 -142 -24 -498 -24 -668 0 -99 13
-126 18 -227 41 -463 102 -864 331 -1237 706 -223 224 -397 463 -548 752 -43
81 -84 146 -103 162 -73 61 -182 84 -210 43z"/>
<path d="M5394 1618 c-74 -96 -256 -322 -274 -338 -10 -8 -253 -302 -287 -346
-18 -23 -30 -44 -27 -46 3 -3 24 -1 47 4 23 5 50 11 61 14 175 35 393 161 495
285 24 30 60 87 79 128 32 66 36 83 36 155 0 70 -4 89 -29 141 -17 32 -35 61
-42 63 -6 1 -33 -25 -59 -60z"/>
<path d="M1466 1611 c-8 -12 1 -71 19 -132 32 -110 119 -239 245 -359 43 -41
84 -80 92 -85 90 -70 138 -105 143 -105 3 0 -22 53 -56 118 -34 64 -94 193
-135 286 -40 92 -81 177 -91 188 -20 22 -171 98 -196 98 -9 0 -18 -4 -21 -9z"/>
<path d="M4540 1433 c-70 -22 -329 -89 -390 -102 -30 -7 -107 -23 -170 -37
-63 -14 -126 -27 -140 -30 -14 -2 -59 -11 -100 -19 -41 -8 -91 -17 -110 -20
-19 -4 -98 -20 -175 -36 -77 -17 -149 -32 -160 -34 -11 -3 -88 -20 -171 -39
-164 -38 -169 -39 -294 -60 -111 -19 -145 -24 -227 -33 -82 -9 -309 -10 -378
-1 -192 25 -182 28 -139 -50 70 -126 138 -194 207 -208 30 -6 240 -6 302 0
208 20 256 29 484 87 232 59 415 98 530 115 25 4 55 8 66 10 11 2 36 7 55 10
100 17 399 80 498 105 129 33 166 50 183 81 7 12 50 75 96 140 47 65 83 122
81 126 -1 5 -23 2 -48 -5z"/>
<path d="M1936 1412 c-9 -8 62 -140 95 -177 52 -59 131 -72 489 -80 141 -3
280 10 420 39 14 2 50 10 80 16 88 17 210 51 215 61 8 11 -15 22 -140 63 -201
67 -284 79 -505 76 -422 -5 -557 -5 -602 1 -26 3 -50 4 -52 1z"/>
<path d="M4215 1003 c-65 -14 -125 -35 -125 -43 0 -13 67 -32 87 -26 20 7 83
60 83 70 0 6 -13 6 -45 -1z"/>
<path d="M3655 831 c-37 -9 -70 -21 -72 -27 -4 -13 106 -119 170 -163 52 -35
168 -95 230 -118 165 -60 383 -68 537 -19 47 15 123 48 170 72 94 50 242 153
235 164 -2 4 -42 -1 -87 -11 -205 -45 -466 -44 -693 3 -95 19 -228 61 -250 78
-15 12 -96 33 -136 35 -19 1 -66 -6 -104 -14z"/>
<path d="M3217 755 c-107 -28 -117 -32 -117 -44 0 -23 152 -161 239 -219 181
-119 342 -157 545 -128 42 6 92 23 76 26 -3 1 -16 4 -30 6 -38 7 -227 101
-301 150 -37 24 -104 76 -150 116 -46 40 -92 79 -101 86 -36 28 -72 30 -161 7z"/>
<path d="M2711 673 c-41 -7 -78 -16 -83 -21 -5 -5 4 -24 18 -43 68 -87 214
-175 337 -204 65 -15 212 -24 222 -13 3 3 -12 16 -33 30 -21 14 -84 71 -140
126 -57 56 -115 111 -129 122 -30 24 -70 24 -192 3z"/>
</g>
</svg>
